<svg xmlns="http://www.w3.org/2000/svg" width="24" height="24" viewBox="0 0 24 24" fill="none">
  <circle cx="12" cy="12" r="12" fill="#1DA1F2"/>
  <path d="M8 15c6 0 9-5 9-9v-1a6.5 6.5 0 0 0 1.5-1.5 6.2 6.2 0 0 1-1.9.7A3.3 3.3 0 0 0 17.5 3a6.6 6.6 0 0 1-2.1.8A3.3 3.3 0 0 0 12 3a3.3 3.3 0 0 0-3.2 4A9.4 9.4 0 0 1 4 4s-3 9 6 12a9.5 9.5 0 0 1-6 2c9 5.5 20 0 20-11.5a6.3 6.3 0 0 0-.1-1.2A6.5 6.5 0 0 0 22 4.5a6.3 6.3 0 0 1-1.8.5A3.3 3.3 0 0 0 21 3.5" stroke="white" stroke-width="1" fill="none"/>
</svg>